# xmcd CD database file
#
# Track frame offsets:
#	150
#	27157
#	47662
#	64632
#	94820
#	118677
#	141412
#	178650
#	203812
#	228345
#
# Disc length: 3126 seconds
#
# Revision: 1
# Processed by: cddbd v1.5.1PL0 Copyright (c) Steve Scherf et al.
# Submitted via: CDex 1.51
#
DISCID=880c340a
DTITLE=Reginald Veal - blues and spiritual
DYEAR=200
DGENRE=Jazz
TTITLE0=II BS
TTITLE1=Nostalgia in Times Square
TTITLE2=Yvonne's Child
TTITLE3=Mysterious Blues
TTITLE4=May the work I've done speak for me
TTITLE5=M.T.
TTITLE6=IX Love
TTITLE7=Down By The Riverside
TTITLE8=Steal Away
TTITLE9=Lines of Donna
EXTD=YEAR: 200
EXTT0=
EXTT1=
EXTT2=
EXTT3=
EXTT4=
EXTT5=
EXTT6=
EXTT7=
EXTT8=
EXTT9=
PLAYORDER=
